<svg width="50" height="50" viewBox="0 0 50 50" fill="none" xmlns="http://www.w3.org/2000/svg">
<path d="M0 2.14286C0 1.57454 0.225764 1.02949 0.627628 0.627628C1.02949 0.225764 1.57454 0 2.14286 0H3.73714C6.45143 0 8.08 1.82571 9.00857 3.52286C9.62857 4.65429 10.0771 5.96572 10.4286 7.15429C10.5236 7.14678 10.6189 7.14297 10.7143 7.14286H46.4229C48.7943 7.14286 50.5086 9.41143 49.8572 11.6943L44.6343 30.0057C44.166 31.6482 43.1753 33.0933 41.8122 34.1223C40.4492 35.1513 38.7879 35.7082 37.08 35.7086H20.0857C18.3643 35.7086 16.6904 35.1434 15.3215 34.0996C13.9526 33.0559 12.9643 31.5915 12.5086 29.9314L10.3371 22.0114L6.73714 9.87429L6.73429 9.85143C6.28857 8.23143 5.87143 6.71429 5.24857 5.58286C4.65143 4.48286 4.17143 4.28571 3.74 4.28571H2.14286C1.57454 4.28571 1.02949 4.05995 0.627628 3.65809C0.225764 3.25622 0 2.71118 0 2.14286ZM14.4943 20.9714L16.64 28.7971C17.0686 30.3457 18.4771 31.4229 20.0857 31.4229H37.08C37.8563 31.4228 38.6115 31.1699 39.2311 30.7023C39.8508 30.2347 40.3013 29.5779 40.5143 28.8314L45.4771 11.4286H11.6714L14.4543 20.82L14.4943 20.9714Z" fill="black"/>
<path d="M24.2858 44.2857C24.2858 45.8012 23.6837 47.2547 22.6121 48.3263C21.5404 49.3979 20.087 50 18.5715 50C17.0559 50 15.6025 49.3979 14.5309 48.3263C13.4592 47.2547 12.8572 45.8012 12.8572 44.2857C12.8572 42.7702 13.4592 41.3167 14.5309 40.2451C15.6025 39.1735 17.0559 38.5714 18.5715 38.5714C20.087 38.5714 21.5404 39.1735 22.6121 40.2451C23.6837 41.3167 24.2858 42.7702 24.2858 44.2857ZM20 44.2857C20 43.9068 19.8495 43.5435 19.5816 43.2755C19.3137 43.0076 18.9503 42.8571 18.5715 42.8571C18.1926 42.8571 17.8292 43.0076 17.5613 43.2755C17.2934 43.5435 17.1429 43.9068 17.1429 44.2857C17.1429 44.6646 17.2934 45.0279 17.5613 45.2959C17.8292 45.5638 18.1926 45.7143 18.5715 45.7143C18.9503 45.7143 19.3137 45.5638 19.5816 45.2959C19.8495 45.0279 20 44.6646 20 44.2857Z" fill="black"/>
<path d="M44.2858 44.2857C44.2858 45.8012 43.6837 47.2547 42.6121 48.3263C41.5404 49.3979 40.087 50 38.5715 50C37.0559 50 35.6025 49.3979 34.5309 48.3263C33.4592 47.2547 32.8572 45.8012 32.8572 44.2857C32.8572 42.7702 33.4592 41.3167 34.5309 40.2451C35.6025 39.1735 37.0559 38.5714 38.5715 38.5714C40.087 38.5714 41.5404 39.1735 42.6121 40.2451C43.6837 41.3167 44.2858 42.7702 44.2858 44.2857ZM40 44.2857C40 43.9068 39.8495 43.5435 39.5816 43.2755C39.3137 43.0076 38.9503 42.8571 38.5715 42.8571C38.1926 42.8571 37.8292 43.0076 37.5613 43.2755C37.2934 43.5435 37.1429 43.9068 37.1429 44.2857C37.1429 44.6646 37.2934 45.0279 37.5613 45.2959C37.8292 45.5638 38.1926 45.7143 38.5715 45.7143C38.9503 45.7143 39.3137 45.5638 39.5816 45.2959C39.8495 45.0279 40 44.6646 40 44.2857Z" fill="black"/>
</svg>
